<mxfile host="app.diagrams.net" modified="2024-07-10T02:16:16.606Z" agent="Mozilla/5.0 (Windows NT 10.0; Win64; x64) AppleWebKit/537.36 (KHTML, like Gecko) Chrome/126.0.0.0 Safari/537.36" etag="D_sJfaHngOF9C-X_b00R" version="24.6.4" type="github">
  <diagram id="C5RBs43oDa-KdzZeNtuy" name="Page-1">
    <mxGraphModel dx="1366" dy="758" grid="1" gridSize="10" guides="1" tooltips="1" connect="1" arrows="1" fold="1" page="1" pageScale="1" pageWidth="827" pageHeight="1169" math="0" shadow="0">
      <root>
        <mxCell id="WIyWlLk6GJQsqaUBKTNV-0" />
        <mxCell id="WIyWlLk6GJQsqaUBKTNV-1" parent="WIyWlLk6GJQsqaUBKTNV-0" />
        <mxCell id="WIyWlLk6GJQsqaUBKTNV-2" value="" style="rounded=0;html=1;jettySize=auto;orthogonalLoop=1;fontSize=11;endArrow=block;endFill=0;endSize=8;strokeWidth=1;shadow=0;labelBackgroundColor=none;edgeStyle=orthogonalEdgeStyle;entryX=0.5;entryY=0;entryDx=0;entryDy=0;exitX=0.5;exitY=1;exitDx=0;exitDy=0;" parent="WIyWlLk6GJQsqaUBKTNV-1" source="nENyLqdzYi73C-7ti1mS-1" target="nENyLqdzYi73C-7ti1mS-2" edge="1">
          <mxGeometry relative="1" as="geometry">
            <mxPoint x="190" y="240" as="targetPoint" />
          </mxGeometry>
        </mxCell>
        <mxCell id="nENyLqdzYi73C-7ti1mS-14" style="edgeStyle=orthogonalEdgeStyle;rounded=0;orthogonalLoop=1;jettySize=auto;html=1;exitX=0.5;exitY=1;exitDx=0;exitDy=0;entryX=0.5;entryY=0;entryDx=0;entryDy=0;" edge="1" parent="WIyWlLk6GJQsqaUBKTNV-1" source="WIyWlLk6GJQsqaUBKTNV-3" target="nENyLqdzYi73C-7ti1mS-1">
          <mxGeometry relative="1" as="geometry" />
        </mxCell>
        <mxCell id="WIyWlLk6GJQsqaUBKTNV-3" value="Inicio" style="rounded=1;whiteSpace=wrap;html=1;fontSize=12;glass=0;strokeWidth=1;shadow=0;" parent="WIyWlLk6GJQsqaUBKTNV-1" vertex="1">
          <mxGeometry x="350" y="90" width="120" height="40" as="geometry" />
        </mxCell>
        <mxCell id="WIyWlLk6GJQsqaUBKTNV-5" value="Yes" style="edgeStyle=orthogonalEdgeStyle;rounded=0;html=1;jettySize=auto;orthogonalLoop=1;fontSize=11;endArrow=block;endFill=0;endSize=8;strokeWidth=1;shadow=0;labelBackgroundColor=none;exitX=1;exitY=0.5;exitDx=0;exitDy=0;" parent="WIyWlLk6GJQsqaUBKTNV-1" source="nENyLqdzYi73C-7ti1mS-2" target="WIyWlLk6GJQsqaUBKTNV-7" edge="1">
          <mxGeometry y="10" relative="1" as="geometry">
            <mxPoint as="offset" />
            <mxPoint x="405" y="280" as="sourcePoint" />
          </mxGeometry>
        </mxCell>
        <mxCell id="WIyWlLk6GJQsqaUBKTNV-7" value="&lt;span style=&quot;text-align: left;&quot;&gt;Fin&lt;/span&gt;" style="rounded=1;whiteSpace=wrap;html=1;fontSize=12;glass=0;strokeWidth=1;shadow=0;" parent="WIyWlLk6GJQsqaUBKTNV-1" vertex="1">
          <mxGeometry x="515" y="277.5" width="120" height="40" as="geometry" />
        </mxCell>
        <mxCell id="WIyWlLk6GJQsqaUBKTNV-8" value="" style="rounded=0;html=1;jettySize=auto;orthogonalLoop=1;fontSize=11;endArrow=block;endFill=0;endSize=8;strokeWidth=1;shadow=0;labelBackgroundColor=none;edgeStyle=orthogonalEdgeStyle;exitX=0.5;exitY=1;exitDx=0;exitDy=0;" parent="WIyWlLk6GJQsqaUBKTNV-1" source="nENyLqdzYi73C-7ti1mS-15" target="WIyWlLk6GJQsqaUBKTNV-11" edge="1">
          <mxGeometry x="0.3429" y="20" relative="1" as="geometry">
            <mxPoint as="offset" />
            <mxPoint x="157.03999999999996" y="481.03999999999996" as="sourcePoint" />
          </mxGeometry>
        </mxCell>
        <mxCell id="nENyLqdzYi73C-7ti1mS-20" style="edgeStyle=orthogonalEdgeStyle;rounded=0;orthogonalLoop=1;jettySize=auto;html=1;exitX=0.5;exitY=1;exitDx=0;exitDy=0;entryX=0.5;entryY=0;entryDx=0;entryDy=0;" edge="1" parent="WIyWlLk6GJQsqaUBKTNV-1" source="WIyWlLk6GJQsqaUBKTNV-11" target="nENyLqdzYi73C-7ti1mS-17">
          <mxGeometry relative="1" as="geometry" />
        </mxCell>
        <mxCell id="WIyWlLk6GJQsqaUBKTNV-11" value="&lt;span style=&quot;text-align: left;&quot;&gt;¿thorY &amp;gt; lightY?&amp;nbsp;&lt;/span&gt;" style="rounded=1;whiteSpace=wrap;html=1;fontSize=12;glass=0;strokeWidth=1;shadow=0;" parent="WIyWlLk6GJQsqaUBKTNV-1" vertex="1">
          <mxGeometry x="120" y="510" width="120" height="40" as="geometry" />
        </mxCell>
        <mxCell id="nENyLqdzYi73C-7ti1mS-1" value="&lt;span style=&quot;text-align: left;&quot;&gt;Leer&amp;nbsp;&lt;/span&gt;Leer coordenadas iniciales&lt;br&gt;&lt;span style=&quot;text-align: left;&quot;&gt;thorX, thorY, lightX, lightY&lt;/span&gt;" style="rounded=1;whiteSpace=wrap;html=1;" vertex="1" parent="WIyWlLk6GJQsqaUBKTNV-1">
          <mxGeometry x="285" y="160" width="250" height="40" as="geometry" />
        </mxCell>
        <mxCell id="nENyLqdzYi73C-7ti1mS-2" value="&lt;span style=&quot;text-align: left;&quot;&gt;¿thorX == lightX y thorY == lightY?&amp;nbsp;&lt;/span&gt;" style="rounded=1;whiteSpace=wrap;html=1;" vertex="1" parent="WIyWlLk6GJQsqaUBKTNV-1">
          <mxGeometry x="215" y="270" width="180" height="55" as="geometry" />
        </mxCell>
        <mxCell id="nENyLqdzYi73C-7ti1mS-10" style="edgeStyle=orthogonalEdgeStyle;rounded=0;orthogonalLoop=1;jettySize=auto;html=1;entryX=0.5;entryY=0;entryDx=0;entryDy=0;" edge="1" parent="WIyWlLk6GJQsqaUBKTNV-1" source="nENyLqdzYi73C-7ti1mS-2" target="nENyLqdzYi73C-7ti1mS-15">
          <mxGeometry relative="1" as="geometry">
            <mxPoint x="170" y="400" as="targetPoint" />
          </mxGeometry>
        </mxCell>
        <mxCell id="nENyLqdzYi73C-7ti1mS-11" value="No" style="text;html=1;align=center;verticalAlign=middle;resizable=0;points=[];autosize=1;strokeColor=none;fillColor=none;" vertex="1" parent="WIyWlLk6GJQsqaUBKTNV-1">
          <mxGeometry x="140" y="360" width="40" height="30" as="geometry" />
        </mxCell>
        <mxCell id="nENyLqdzYi73C-7ti1mS-15" value="Determinar Direccion" style="rounded=1;whiteSpace=wrap;html=1;" vertex="1" parent="WIyWlLk6GJQsqaUBKTNV-1">
          <mxGeometry x="100" y="410" width="140" height="40" as="geometry" />
        </mxCell>
        <mxCell id="nENyLqdzYi73C-7ti1mS-21" style="edgeStyle=orthogonalEdgeStyle;rounded=0;orthogonalLoop=1;jettySize=auto;html=1;exitX=1;exitY=0.5;exitDx=0;exitDy=0;entryX=0;entryY=0.5;entryDx=0;entryDy=0;" edge="1" parent="WIyWlLk6GJQsqaUBKTNV-1" source="nENyLqdzYi73C-7ti1mS-17" target="nENyLqdzYi73C-7ti1mS-18">
          <mxGeometry relative="1" as="geometry" />
        </mxCell>
        <mxCell id="nENyLqdzYi73C-7ti1mS-17" value="Mover Norte" style="rounded=1;whiteSpace=wrap;html=1;" vertex="1" parent="WIyWlLk6GJQsqaUBKTNV-1">
          <mxGeometry x="120" y="590" width="120" height="30" as="geometry" />
        </mxCell>
        <mxCell id="nENyLqdzYi73C-7ti1mS-22" style="edgeStyle=orthogonalEdgeStyle;rounded=0;orthogonalLoop=1;jettySize=auto;html=1;exitX=0.5;exitY=1;exitDx=0;exitDy=0;entryX=0.5;entryY=0;entryDx=0;entryDy=0;" edge="1" parent="WIyWlLk6GJQsqaUBKTNV-1" source="nENyLqdzYi73C-7ti1mS-18" target="nENyLqdzYi73C-7ti1mS-19">
          <mxGeometry relative="1" as="geometry" />
        </mxCell>
        <mxCell id="nENyLqdzYi73C-7ti1mS-18" value="thorY = thorY - 1&amp;nbsp;" style="rounded=1;whiteSpace=wrap;html=1;" vertex="1" parent="WIyWlLk6GJQsqaUBKTNV-1">
          <mxGeometry x="310" y="560" width="110" height="30" as="geometry" />
        </mxCell>
        <mxCell id="nENyLqdzYi73C-7ti1mS-26" style="edgeStyle=orthogonalEdgeStyle;rounded=0;orthogonalLoop=1;jettySize=auto;html=1;exitX=0.5;exitY=1;exitDx=0;exitDy=0;entryX=0.5;entryY=0;entryDx=0;entryDy=0;" edge="1" parent="WIyWlLk6GJQsqaUBKTNV-1" source="nENyLqdzYi73C-7ti1mS-19" target="nENyLqdzYi73C-7ti1mS-24">
          <mxGeometry relative="1" as="geometry" />
        </mxCell>
        <mxCell id="nENyLqdzYi73C-7ti1mS-19" value="¿thorY &amp;lt; lightY?&amp;nbsp;" style="rounded=1;whiteSpace=wrap;html=1;" vertex="1" parent="WIyWlLk6GJQsqaUBKTNV-1">
          <mxGeometry x="310" y="635" width="110" height="30" as="geometry" />
        </mxCell>
        <mxCell id="nENyLqdzYi73C-7ti1mS-23" value="Si" style="text;html=1;align=center;verticalAlign=middle;resizable=0;points=[];autosize=1;strokeColor=none;fillColor=none;" vertex="1" parent="WIyWlLk6GJQsqaUBKTNV-1">
          <mxGeometry x="175" y="548" width="30" height="30" as="geometry" />
        </mxCell>
        <mxCell id="nENyLqdzYi73C-7ti1mS-27" style="edgeStyle=orthogonalEdgeStyle;rounded=0;orthogonalLoop=1;jettySize=auto;html=1;exitX=0;exitY=0.5;exitDx=0;exitDy=0;" edge="1" parent="WIyWlLk6GJQsqaUBKTNV-1" source="nENyLqdzYi73C-7ti1mS-24" target="nENyLqdzYi73C-7ti1mS-25">
          <mxGeometry relative="1" as="geometry" />
        </mxCell>
        <mxCell id="nENyLqdzYi73C-7ti1mS-24" value="Mover Sur&amp;nbsp;" style="rounded=1;whiteSpace=wrap;html=1;" vertex="1" parent="WIyWlLk6GJQsqaUBKTNV-1">
          <mxGeometry x="305" y="720" width="120" height="30" as="geometry" />
        </mxCell>
        <mxCell id="nENyLqdzYi73C-7ti1mS-32" style="edgeStyle=orthogonalEdgeStyle;rounded=0;orthogonalLoop=1;jettySize=auto;html=1;exitX=0.5;exitY=1;exitDx=0;exitDy=0;entryX=0.5;entryY=0;entryDx=0;entryDy=0;" edge="1" parent="WIyWlLk6GJQsqaUBKTNV-1" source="nENyLqdzYi73C-7ti1mS-25" target="nENyLqdzYi73C-7ti1mS-29">
          <mxGeometry relative="1" as="geometry" />
        </mxCell>
        <mxCell id="nENyLqdzYi73C-7ti1mS-25" value="thorY = thorY + 1&amp;nbsp;" style="rounded=1;whiteSpace=wrap;html=1;" vertex="1" parent="WIyWlLk6GJQsqaUBKTNV-1">
          <mxGeometry x="130" y="720" width="120" height="30" as="geometry" />
        </mxCell>
        <mxCell id="nENyLqdzYi73C-7ti1mS-28" value="Si" style="text;html=1;align=center;verticalAlign=middle;resizable=0;points=[];autosize=1;strokeColor=none;fillColor=none;" vertex="1" parent="WIyWlLk6GJQsqaUBKTNV-1">
          <mxGeometry x="365" y="668" width="30" height="30" as="geometry" />
        </mxCell>
        <mxCell id="nENyLqdzYi73C-7ti1mS-33" style="edgeStyle=orthogonalEdgeStyle;rounded=0;orthogonalLoop=1;jettySize=auto;html=1;exitX=1;exitY=0.5;exitDx=0;exitDy=0;entryX=0;entryY=0.5;entryDx=0;entryDy=0;" edge="1" parent="WIyWlLk6GJQsqaUBKTNV-1" source="nENyLqdzYi73C-7ti1mS-29" target="nENyLqdzYi73C-7ti1mS-30">
          <mxGeometry relative="1" as="geometry" />
        </mxCell>
        <mxCell id="nENyLqdzYi73C-7ti1mS-35" value="" style="edgeStyle=orthogonalEdgeStyle;rounded=0;orthogonalLoop=1;jettySize=auto;html=1;" edge="1" parent="WIyWlLk6GJQsqaUBKTNV-1" source="nENyLqdzYi73C-7ti1mS-29" target="nENyLqdzYi73C-7ti1mS-30">
          <mxGeometry relative="1" as="geometry" />
        </mxCell>
        <mxCell id="nENyLqdzYi73C-7ti1mS-29" value="¿thorX &amp;gt; lightX?&amp;nbsp;" style="rounded=1;whiteSpace=wrap;html=1;" vertex="1" parent="WIyWlLk6GJQsqaUBKTNV-1">
          <mxGeometry x="130" y="790" width="120" height="30" as="geometry" />
        </mxCell>
        <mxCell id="nENyLqdzYi73C-7ti1mS-34" style="edgeStyle=orthogonalEdgeStyle;rounded=0;orthogonalLoop=1;jettySize=auto;html=1;exitX=0.5;exitY=1;exitDx=0;exitDy=0;entryX=0.5;entryY=0;entryDx=0;entryDy=0;" edge="1" parent="WIyWlLk6GJQsqaUBKTNV-1" source="nENyLqdzYi73C-7ti1mS-30" target="nENyLqdzYi73C-7ti1mS-31">
          <mxGeometry relative="1" as="geometry" />
        </mxCell>
        <mxCell id="nENyLqdzYi73C-7ti1mS-30" value="Mover Oeste&amp;nbsp; &amp;nbsp;" style="rounded=1;whiteSpace=wrap;html=1;" vertex="1" parent="WIyWlLk6GJQsqaUBKTNV-1">
          <mxGeometry x="305" y="790" width="120" height="30" as="geometry" />
        </mxCell>
        <mxCell id="nENyLqdzYi73C-7ti1mS-40" style="edgeStyle=orthogonalEdgeStyle;rounded=0;orthogonalLoop=1;jettySize=auto;html=1;exitX=0;exitY=0.5;exitDx=0;exitDy=0;entryX=1;entryY=0.5;entryDx=0;entryDy=0;" edge="1" parent="WIyWlLk6GJQsqaUBKTNV-1" source="nENyLqdzYi73C-7ti1mS-31" target="nENyLqdzYi73C-7ti1mS-37">
          <mxGeometry relative="1" as="geometry" />
        </mxCell>
        <mxCell id="nENyLqdzYi73C-7ti1mS-31" value="&amp;nbsp;thorX = thorX - 1&amp;nbsp; &amp;nbsp;" style="rounded=1;whiteSpace=wrap;html=1;" vertex="1" parent="WIyWlLk6GJQsqaUBKTNV-1">
          <mxGeometry x="303.75" y="870" width="122.5" height="30" as="geometry" />
        </mxCell>
        <mxCell id="nENyLqdzYi73C-7ti1mS-36" value="Si" style="text;html=1;align=center;verticalAlign=middle;resizable=0;points=[];autosize=1;strokeColor=none;fillColor=none;" vertex="1" parent="WIyWlLk6GJQsqaUBKTNV-1">
          <mxGeometry x="255" y="778" width="30" height="30" as="geometry" />
        </mxCell>
        <mxCell id="nENyLqdzYi73C-7ti1mS-41" style="edgeStyle=orthogonalEdgeStyle;rounded=0;orthogonalLoop=1;jettySize=auto;html=1;exitX=0.5;exitY=1;exitDx=0;exitDy=0;entryX=0.5;entryY=0;entryDx=0;entryDy=0;" edge="1" parent="WIyWlLk6GJQsqaUBKTNV-1" source="nENyLqdzYi73C-7ti1mS-37" target="nENyLqdzYi73C-7ti1mS-38">
          <mxGeometry relative="1" as="geometry" />
        </mxCell>
        <mxCell id="nENyLqdzYi73C-7ti1mS-37" value="¿thorX &amp;lt; lightX?&amp;nbsp; &amp;nbsp;" style="rounded=1;whiteSpace=wrap;html=1;" vertex="1" parent="WIyWlLk6GJQsqaUBKTNV-1">
          <mxGeometry x="130" y="870" width="122.5" height="30" as="geometry" />
        </mxCell>
        <mxCell id="nENyLqdzYi73C-7ti1mS-42" style="edgeStyle=orthogonalEdgeStyle;rounded=0;orthogonalLoop=1;jettySize=auto;html=1;exitX=1;exitY=0.5;exitDx=0;exitDy=0;" edge="1" parent="WIyWlLk6GJQsqaUBKTNV-1" source="nENyLqdzYi73C-7ti1mS-38" target="nENyLqdzYi73C-7ti1mS-39">
          <mxGeometry relative="1" as="geometry" />
        </mxCell>
        <mxCell id="nENyLqdzYi73C-7ti1mS-38" value="Mover Este&amp;nbsp; &amp;nbsp; &amp;nbsp;" style="rounded=1;whiteSpace=wrap;html=1;" vertex="1" parent="WIyWlLk6GJQsqaUBKTNV-1">
          <mxGeometry x="130" y="950" width="122.5" height="30" as="geometry" />
        </mxCell>
        <mxCell id="nENyLqdzYi73C-7ti1mS-53" style="edgeStyle=orthogonalEdgeStyle;rounded=0;orthogonalLoop=1;jettySize=auto;html=1;exitX=1;exitY=0.5;exitDx=0;exitDy=0;entryX=0;entryY=0.5;entryDx=0;entryDy=0;" edge="1" parent="WIyWlLk6GJQsqaUBKTNV-1" source="nENyLqdzYi73C-7ti1mS-39" target="nENyLqdzYi73C-7ti1mS-44">
          <mxGeometry relative="1" as="geometry" />
        </mxCell>
        <mxCell id="nENyLqdzYi73C-7ti1mS-39" value="thorX = thorX + 1&amp;nbsp;&amp;nbsp;" style="rounded=1;whiteSpace=wrap;html=1;" vertex="1" parent="WIyWlLk6GJQsqaUBKTNV-1">
          <mxGeometry x="310" y="950" width="122.5" height="30" as="geometry" />
        </mxCell>
        <mxCell id="nENyLqdzYi73C-7ti1mS-43" value="Si" style="text;html=1;align=center;verticalAlign=middle;resizable=0;points=[];autosize=1;strokeColor=none;fillColor=none;" vertex="1" parent="WIyWlLk6GJQsqaUBKTNV-1">
          <mxGeometry x="185" y="908" width="30" height="30" as="geometry" />
        </mxCell>
        <mxCell id="nENyLqdzYi73C-7ti1mS-54" style="edgeStyle=orthogonalEdgeStyle;rounded=0;orthogonalLoop=1;jettySize=auto;html=1;exitX=0.5;exitY=1;exitDx=0;exitDy=0;entryX=0.5;entryY=0;entryDx=0;entryDy=0;" edge="1" parent="WIyWlLk6GJQsqaUBKTNV-1" source="nENyLqdzYi73C-7ti1mS-44" target="nENyLqdzYi73C-7ti1mS-45">
          <mxGeometry relative="1" as="geometry" />
        </mxCell>
        <mxCell id="nENyLqdzYi73C-7ti1mS-44" value="&amp;nbsp;Volver a Bucle Principal&amp;nbsp;" style="rounded=1;whiteSpace=wrap;html=1;" vertex="1" parent="WIyWlLk6GJQsqaUBKTNV-1">
          <mxGeometry x="510" y="635" width="250" height="60" as="geometry" />
        </mxCell>
        <mxCell id="nENyLqdzYi73C-7ti1mS-49" style="edgeStyle=orthogonalEdgeStyle;rounded=0;orthogonalLoop=1;jettySize=auto;html=1;exitX=0.25;exitY=1;exitDx=0;exitDy=0;entryX=0;entryY=0.5;entryDx=0;entryDy=0;" edge="1" parent="WIyWlLk6GJQsqaUBKTNV-1" source="nENyLqdzYi73C-7ti1mS-45" target="nENyLqdzYi73C-7ti1mS-15">
          <mxGeometry relative="1" as="geometry">
            <Array as="points">
              <mxPoint x="573" y="1070" />
              <mxPoint x="80" y="1070" />
              <mxPoint x="80" y="430" />
            </Array>
          </mxGeometry>
        </mxCell>
        <mxCell id="nENyLqdzYi73C-7ti1mS-50" style="edgeStyle=orthogonalEdgeStyle;rounded=0;orthogonalLoop=1;jettySize=auto;html=1;exitX=0.75;exitY=1;exitDx=0;exitDy=0;entryX=0.75;entryY=0;entryDx=0;entryDy=0;" edge="1" parent="WIyWlLk6GJQsqaUBKTNV-1" source="nENyLqdzYi73C-7ti1mS-45" target="nENyLqdzYi73C-7ti1mS-46">
          <mxGeometry relative="1" as="geometry" />
        </mxCell>
        <mxCell id="nENyLqdzYi73C-7ti1mS-45" value="&amp;nbsp;¿thorX == lightX &amp;amp;&amp;amp; thorY == lightY?" style="rounded=1;whiteSpace=wrap;html=1;" vertex="1" parent="WIyWlLk6GJQsqaUBKTNV-1">
          <mxGeometry x="510" y="768" width="250" height="40" as="geometry" />
        </mxCell>
        <mxCell id="nENyLqdzYi73C-7ti1mS-46" value="Fin" style="rounded=1;whiteSpace=wrap;html=1;" vertex="1" parent="WIyWlLk6GJQsqaUBKTNV-1">
          <mxGeometry x="640" y="890" width="120" height="60" as="geometry" />
        </mxCell>
        <mxCell id="nENyLqdzYi73C-7ti1mS-51" value="Si" style="text;html=1;align=center;verticalAlign=middle;resizable=0;points=[];autosize=1;strokeColor=none;fillColor=none;" vertex="1" parent="WIyWlLk6GJQsqaUBKTNV-1">
          <mxGeometry x="705" y="818" width="30" height="30" as="geometry" />
        </mxCell>
        <mxCell id="nENyLqdzYi73C-7ti1mS-52" value="No" style="text;html=1;align=center;verticalAlign=middle;resizable=0;points=[];autosize=1;strokeColor=none;fillColor=none;" vertex="1" parent="WIyWlLk6GJQsqaUBKTNV-1">
          <mxGeometry x="570" y="838" width="40" height="30" as="geometry" />
        </mxCell>
      </root>
    </mxGraphModel>
  </diagram>
</mxfile>
